<svg width="542" height="516" viewBox="0 0 542 516" fill="none" xmlns="http://www.w3.org/2000/svg">
<ellipse opacity="0.3" cx="249" cy="482" rx="299" ry="34" fill="#E6E6E6"/>
<path d="M41.4246 279C41.4246 279 -3.06919 300.294 -8.87438 349.361C-14.6796 398.429 -31.074 493.182 89.6247 487.778C210.323 482.375 267.241 475.648 238.782 383.503C210.323 291.357 41.4246 279 41.4246 279Z" fill="#FFD200"/>
<path opacity="0.09" d="M36.5559 304.45C34.01 318.64 40.3561 332.952 52.5651 340.554C68.8948 351.358 94.0493 389.752 113.528 409.166C119.67 415.277 123.073 423.63 122.956 432.309C122.956 435.809 124.37 439.688 128.971 443.473C142.51 454.58 199.325 460.125 231.098 425.951C262.871 391.777 220.972 374.86 220.972 374.86L81.3212 299L36.5559 304.45Z" fill="black"/>
<path d="M346.338 471C346.338 471 349.26 478.649 356.593 480.293C363.926 481.938 367.909 491.27 351.884 489.854C335.86 488.439 327.056 490.925 329.364 481.881C331.672 472.836 330.63 471.478 330.63 471.478L346.338 471Z" fill="#F4A28C"/>
<path d="M236.556 464.839C236.556 464.839 235.303 472.908 240.865 478.255C246.427 483.603 245.25 493.588 231.943 484.005C218.636 474.422 209.619 471.911 216.206 465.318C222.793 458.725 222.566 457 222.566 457L236.556 464.839Z" fill="#F4A28C"/>
<path d="M250.644 352C250.644 352 349.955 353.023 348.993 472.002L325.566 476C325.566 476 321.058 350.351 192 410.21L198.734 360.716L250.644 352Z" fill="#24285B"/>
<path opacity="0.09" d="M250.644 352C250.644 352 349.955 353.023 348.993 472.002L325.566 476C325.566 476 321.058 350.351 192 410.21L198.734 360.716L250.644 352Z" fill="black"/>
<path d="M259 242.56L268 245L261.6 238L259 242.56V242.56Z" fill="#FFD200"/>
<path d="M123 301.168C123 301.168 140.218 344.771 182.24 337.093C224.262 329.415 240.231 241.089 240.231 241.089C240.231 241.089 256.843 230.264 248.802 218.188C240.761 206.112 227.687 232.236 227.687 232.236C227.687 232.236 209.58 306.665 170.396 282.532L123 301.168Z" fill="#F4A28C"/>
<path opacity="0.09" d="M123 301.168C123 301.168 140.218 344.771 182.24 337.093C224.262 329.415 240.231 241.089 240.231 241.089C240.231 241.089 256.843 230.264 248.802 218.188C240.761 206.112 227.687 232.236 227.687 232.236C227.687 232.236 209.58 306.665 170.396 282.532L123 301.168Z" fill="black"/>
<path d="M123.35 213.199L132.429 215.084C132.429 215.084 202.598 253.045 189.548 291.063C176.497 329.081 205 365.176 205 365.176L143.985 408C143.985 408 64.2836 368.587 76.218 260.019C76.218 260.019 81.7596 209.448 123.35 213.199Z" fill="#48964A"/>
<path d="M273.2 229.204L284.689 234.728L237.527 332.81L226.039 327.286L273.2 229.204Z" fill="#E6E6E6"/>
<path opacity="0.58" d="M447.687 463.436C447.687 463.436 428.236 458.221 424 440.474C424 440.474 454.145 434.496 455 465L447.687 463.436Z" fill="#48964A"/>
<path opacity="0.73" d="M449.469 460.944C449.469 460.944 436.056 439.789 447.858 420C447.858 420 470.471 434.328 460.429 461L449.469 460.944Z" fill="#48964A"/>
<path d="M453 461.943C453 461.943 460.11 439.285 481.61 435C481.61 435 485.654 449.713 467.691 462L453 461.943Z" fill="#48964A"/>
<path d="M439 461L442.895 487.905L467.386 488L471 461.133L439 461V461Z" fill="#24285B"/>
<path d="M120.613 165L108 209.772L133 215L132.15 180.323L120.613 165V165Z" fill="#F4A28C"/>
<path opacity="0.31" d="M133 187.93C129.791 186.735 127.016 184.675 125.012 182C125.012 182 124.334 190.523 133 200V187.93Z" fill="#CE8172"/>
<path d="M145.911 166.868C145.911 166.868 144.653 180.981 140.65 189.802C139.869 191.539 138.42 192.891 136.628 193.555C134.836 194.218 132.851 194.137 131.119 193.331C126.678 191.263 121.283 187.184 121.035 179.54L119.015 166.621C118.754 161.233 121.93 156.264 126.945 154.215C135.904 149.795 147.112 158.218 145.911 166.868Z" fill="#F4A28C"/>
<path d="M129.926 175.593C129.926 175.593 130.79 170.306 126.623 170.008C122.457 169.711 121.17 177.343 126.623 179L129.926 175.593Z" fill="#F4A28C"/>
<path d="M144.735 176L147.768 181.854C148.116 182.531 148.07 183.327 147.646 183.964C147.221 184.602 146.478 184.993 145.674 185H140L144.735 176Z" fill="#F4A28C"/>
<path d="M218.142 213.542L261.285 238.451L258.802 242.752L215.659 217.843L218.142 213.542Z" fill="#24285B"/>
<path opacity="0.18" d="M158 384.462L144.009 408C144.009 408 93.2833 383.54 78.7443 317.346C64.2053 251.153 112.171 276.949 112.171 276.949L158 384.462Z" fill="black"/>
<path d="M144 408.078C144 408.078 191.071 312.643 260.674 313.001C330.277 313.359 239.846 467 239.846 467L216.898 457.716C216.898 457.716 250.98 391.808 242.308 370.586C233.636 349.363 220.382 495.755 144 408.078Z" fill="#24285B"/>
<path d="M104.399 218.61C104.399 218.61 125.273 208.003 135.879 229.557C146.486 251.112 138.125 343.816 181.174 348.675C224.223 353.535 246.059 308.61 246.059 308.61C246.059 308.61 249.607 289.702 255.495 286.564C261.383 283.425 266.573 303.297 255.495 314.925C255.495 314.925 236.509 386.377 176.229 387.984C115.949 389.591 44.9688 267.543 104.399 218.61Z" fill="#F4A28C"/>
<path d="M145.951 148.552C145.951 148.552 159.65 164.691 141.918 168.07C124.186 171.448 120.531 174.638 122.227 192.608C123.922 210.578 130.951 227.132 107.434 238.401C83.9171 249.67 104.136 268.603 99.8024 290.688C95.4684 312.773 74.7967 328.024 48.3212 312.961C21.8457 297.898 5.50819 259.354 33.8869 236.268C62.2656 213.183 97.9557 207.577 97.9557 170.354C97.9557 133.13 127.616 131.205 145.951 148.552Z" fill="#24285B"/>
<path d="M242.297 306.826L259.889 313.534L256.102 323.468L238.509 316.761L242.297 306.826Z" fill="#48964A"/>
<path opacity="0.44" d="M242.297 306.826L259.889 313.534L256.102 323.468L238.509 316.761L242.297 306.826Z" fill="white"/>
<rect opacity="0.66" x="132" width="137" height="96" fill="#E6E6E6"/>
<rect opacity="0.43" x="319" y="145" width="124" height="87" fill="#E6E6E6"/>
<circle cx="169" cy="29" r="16" fill="#E6E6E6"/>
<rect opacity="0.45" x="204" y="15" width="45" height="63" fill="#C1C1C1"/>
<rect x="155" y="57" width="31" height="21" fill="#C1C1C1"/>
<circle opacity="0.43" cx="357" cy="200.145" r="16.8548" fill="#C1C1C1"/>
<rect opacity="0.43" x="342.806" y="161" width="29.2742" height="16.8548" fill="#C1C1C1"/>
<rect opacity="0.43" x="390" y="161" width="34" height="55" fill="#C1C1C1"/>
</svg>
