<svg width="813" height="774" viewBox="0 0 813 774" fill="none" xmlns="http://www.w3.org/2000/svg">
<g id="Group 12">
<g id="Designer _Two Color (1)">
<ellipse id="Oval" opacity="0.3" cx="373.5" cy="723" rx="448.5" ry="51" fill="#E6E6E6"/>
<path id="Path" d="M62.1369 418.5C62.1369 418.5 -4.60378 450.44 -13.3116 524.042C-22.0193 597.643 -46.611 739.773 134.437 731.668C315.485 723.562 400.861 713.473 358.173 575.254C315.485 437.035 62.1369 418.5 62.1369 418.5Z" fill="#FFD200"/>
<path id="Path_2" opacity="0.09" d="M54.8339 456.674C51.015 477.96 60.5341 499.428 78.8476 510.831C103.342 527.038 141.074 584.628 170.292 613.75C179.505 622.915 184.61 635.445 184.434 648.463C184.434 653.714 186.556 659.533 193.457 665.209C213.766 681.87 298.987 690.187 346.647 638.926C394.307 587.665 331.458 562.29 331.458 562.29L121.982 448.5L54.8339 456.674Z" fill="black"/>
<path id="Path_3" d="M519.507 706.5C519.507 706.5 523.89 717.973 534.89 720.44C545.889 722.907 551.864 736.904 527.826 734.782C503.789 732.659 490.584 736.388 494.046 722.821C497.508 709.254 495.944 707.217 495.944 707.217L519.507 706.5Z" fill="#F4A28C"/>
<path id="Path_4" d="M354.834 697.258C354.834 697.258 352.954 709.362 361.297 717.383C369.64 725.404 367.875 740.382 347.914 726.008C327.954 711.633 314.429 707.867 324.31 697.977C334.19 688.087 333.848 685.5 333.848 685.5L354.834 697.258Z" fill="#F4A28C"/>
<path id="Path_5" d="M375.966 528C375.966 528 524.933 529.535 523.49 708.003L488.349 714C488.349 714 481.586 525.527 288 615.315L298.101 541.075L375.966 528Z" fill="#24285B"/>
<path id="Path_6" opacity="0.09" d="M375.966 528C375.966 528 524.933 529.535 523.49 708.003L488.349 714C488.349 714 481.586 525.527 288 615.315L298.101 541.075L375.966 528Z" fill="black"/>
<path id="Path_7" d="M388.5 363.84L402 367.5L392.399 357L388.5 363.84V363.84Z" fill="#FFD200"/>
<path id="Path_8" d="M184.5 451.751C184.5 451.751 210.326 517.157 273.36 505.64C336.394 494.123 360.347 361.634 360.347 361.634C360.347 361.634 385.265 345.396 373.203 327.282C361.142 309.168 341.53 348.354 341.53 348.354C341.53 348.354 314.37 459.998 255.594 423.798L184.5 451.751Z" fill="#F4A28C"/>
<path id="Path_9" opacity="0.09" d="M184.5 451.751C184.5 451.751 210.326 517.157 273.36 505.64C336.394 494.123 360.347 361.634 360.347 361.634C360.347 361.634 385.265 345.396 373.203 327.282C361.142 309.168 341.53 348.354 341.53 348.354C341.53 348.354 314.37 459.998 255.594 423.798L184.5 451.751Z" fill="black"/>
<path id="Path_10" d="M185.026 319.798L198.643 322.625C198.643 322.625 303.897 379.567 284.322 436.594C264.746 493.621 307.5 547.764 307.5 547.764L215.978 612C215.978 612 96.4253 552.881 114.327 390.028C114.327 390.028 122.639 314.172 185.026 319.798Z" fill="#48964A"/>
<path id="Rectangle" d="M409.801 343.806L427.033 352.091L356.29 499.215L339.058 490.93L409.801 343.806Z" fill="#E6E6E6"/>
<path id="Path_11" opacity="0.58" d="M671.53 695.154C671.53 695.154 642.354 687.332 636 660.711C636 660.711 681.218 651.744 682.5 697.5L671.53 695.154Z" fill="#48964A"/>
<path id="Path_12" opacity="0.73" d="M674.204 691.416C674.204 691.416 654.083 659.684 671.787 630C671.787 630 705.706 651.491 690.643 691.5L674.204 691.416Z" fill="#48964A"/>
<path id="Path_13" d="M679.5 692.915C679.5 692.915 690.165 658.928 722.415 652.5C722.415 652.5 728.482 674.57 701.536 693L679.5 692.915Z" fill="#48964A"/>
<path id="Path_14" d="M658.5 691.5L664.342 731.858L701.079 732L706.5 691.699L658.5 691.5V691.5Z" fill="#24285B"/>
<path id="Path_15" d="M180.92 247.5L162 314.658L199.5 322.5L198.225 270.485L180.92 247.5V247.5Z" fill="#F4A28C"/>
<path id="Path_16" opacity="0.31" d="M199.5 281.895C194.687 280.103 190.524 277.012 187.519 273C187.519 273 186.5 285.785 199.5 300V281.895Z" fill="#CE8172"/>
<path id="Path_17" d="M218.867 250.302C218.867 250.302 216.98 271.472 210.975 284.703C209.804 287.309 207.63 289.337 204.942 290.332C202.254 291.327 199.276 291.206 196.679 289.996C190.017 286.894 181.925 280.777 181.553 269.309L178.522 249.932C178.131 241.849 182.895 234.396 190.417 231.323C203.856 224.693 220.668 237.326 218.867 250.302Z" fill="#F4A28C"/>
<path id="Path_18" d="M194.889 263.39C194.889 263.39 196.185 255.46 189.935 255.013C183.685 254.566 181.756 266.015 189.935 268.5L194.889 263.39Z" fill="#F4A28C"/>
<path id="Path_19" d="M217.103 264L221.652 272.78C222.174 273.796 222.105 274.99 221.469 275.947C220.832 276.903 219.717 277.489 218.512 277.5H210L217.103 264Z" fill="#F4A28C"/>
<path id="Rectangle_2" d="M327.213 320.313L391.928 357.677L388.203 364.129L323.488 326.765L327.213 320.313Z" fill="#24285B"/>
<path id="Path_20" opacity="0.18" d="M237 576.693L216.014 612C216.014 612 139.925 575.31 118.116 476.02C96.3079 376.73 168.256 415.424 168.256 415.424L237 576.693Z" fill="black"/>
<path id="Path_21" d="M216 612.117C216 612.117 286.607 468.965 391.011 469.502C495.416 470.038 359.769 700.5 359.769 700.5L325.346 686.575C325.346 686.575 376.469 587.712 363.461 555.879C350.453 524.045 330.572 743.632 216 612.117Z" fill="#24285B"/>
<path id="Path_22" d="M156.599 327.915C156.599 327.915 187.909 312.004 203.819 344.336C219.728 376.668 207.188 515.724 271.761 523.013C336.334 530.302 369.088 462.915 369.088 462.915C369.088 462.915 374.41 434.554 383.242 429.846C392.075 425.138 399.86 454.946 383.242 472.388C383.242 472.388 354.763 579.566 264.344 581.976C173.924 584.387 67.4533 401.314 156.599 327.915Z" fill="#F4A28C"/>
<path id="Path_23" d="M218.926 222.828C218.926 222.828 239.475 247.036 212.877 252.104C186.279 257.173 180.796 261.958 183.34 288.913C185.884 315.867 196.427 340.699 161.151 357.602C125.876 374.506 156.205 402.904 149.704 436.032C143.203 469.159 112.195 492.037 72.4819 469.442C32.7686 446.848 8.26229 389.031 50.8304 354.403C93.3985 319.775 146.934 311.365 146.934 255.53C146.934 199.695 191.424 196.807 218.926 222.828Z" fill="#24285B"/>
<path id="Rectangle_3" d="M363.445 460.239L389.834 470.301L384.153 485.202L357.763 475.141L363.445 460.239Z" fill="#48964A"/>
<path id="Rectangle_4" opacity="0.44" d="M363.445 460.239L389.834 470.301L384.153 485.202L357.763 475.141L363.445 460.239Z" fill="white"/>
</g>
<g id="Group 7">
<rect id="Rectangle_5" opacity="0.66" x="198" width="205.5" height="144" fill="#E6E6E6"/>
<rect id="Rectangle_6" opacity="0.43" x="478.5" y="217.5" width="186" height="130.5" fill="#E6E6E6"/>
<circle id="Oval_2" cx="253.5" cy="43.5" r="24" fill="#E6E6E6"/>
<rect id="Rectangle_7" opacity="0.45" x="306" y="22.5" width="67.5" height="94.5" fill="#C1C1C1"/>
<rect id="Rectangle_8" x="232.5" y="85.5" width="46.5" height="31.5" fill="#C1C1C1"/>
<circle id="Oval_3" opacity="0.43" cx="535.5" cy="300.218" r="25.2823" fill="#C1C1C1"/>
<rect id="Rectangle_9" opacity="0.43" x="514.21" y="241.5" width="43.9113" height="25.2823" fill="#C1C1C1"/>
<rect id="Rectangle_10" opacity="0.43" x="585" y="241.5" width="51" height="82.5" fill="#C1C1C1"/>
</g>
</g>
</svg>
