<svg width="24" height="22" viewBox="0 0 24 22" fill="none" xmlns="http://www.w3.org/2000/svg">
<path fill-rule="evenodd" clip-rule="evenodd" d="M21.5333 17.1333H11.2667L5.4 21.1667V17.1333H2.46667C1.65665 17.1333 1 16.5314 1 15.7889V2.34444C1 1.60193 1.65665 1 2.46667 1H21.5333C22.3434 1 23 1.60193 23 2.34444V15.7889C23 16.5314 22.3434 17.1333 21.5333 17.1333Z" stroke="#4A4A4A" stroke-width="1.5" stroke-linecap="round" stroke-linejoin="round"/>
<path d="M8.79171 8.44784C8.60186 8.44784 8.44796 8.60174 8.44796 8.79159C8.44796 8.98143 8.60186 9.13534 8.79171 9.13534C8.98156 9.13534 9.13546 8.98143 9.13546 8.79159C9.13546 8.60174 8.98156 8.44784 8.79171 8.44784" stroke="#4A4A4A" stroke-width="1.5" stroke-linecap="round" stroke-linejoin="round"/>
<path d="M12.4583 8.44784C12.2685 8.44784 12.1146 8.60174 12.1146 8.79159C12.1146 8.98143 12.2685 9.13534 12.4583 9.13534C12.6482 9.13534 12.8021 8.98143 12.8021 8.79159C12.8021 8.60174 12.6482 8.44784 12.4583 8.44784" stroke="#4A4A4A" stroke-width="1.5" stroke-linecap="round" stroke-linejoin="round"/>
<path d="M16.125 8.44784C15.9351 8.44784 15.7812 8.60174 15.7812 8.79159C15.7812 8.98143 15.9351 9.13534 16.125 9.13534C16.3148 9.13534 16.4687 8.98143 16.4687 8.79159C16.4687 8.60174 16.3148 8.44784 16.125 8.44784" stroke="#4A4A4A" stroke-width="1.5" stroke-linecap="round" stroke-linejoin="round"/>
</svg>
